<?xml version="1.0" standalone="no"?><!DOCTYPE svg PUBLIC "-//W3C//DTD SVG 1.1//EN" "http://www.w3.org/Graphics/SVG/1.1/DTD/svg11.dtd"><svg t="1635174024826" class="icon" viewBox="0 0 1024 1024" version="1.1" xmlns="http://www.w3.org/2000/svg" p-id="27690" xmlns:xlink="http://www.w3.org/1999/xlink" width="300" height="300"><defs><style type="text/css"></style></defs><path d="M512 512m-512 0a512 512 0 1 0 1024 0 512 512 0 1 0-1024 0Z" fill="#F8E6DF" p-id="27691"></path><path d="M450.699636 311.04l256 150.178909c26.903273 15.778909 34.490182 48.174545 16.942546 72.378182-3.956364 5.492364-9.053091 10.24-14.964364 14.033454l-256 164.096c-26.158545 16.779636-62.487273 11.310545-81.128727-12.218181a48.826182 48.826182 0 0 1-10.821818-30.370909V354.862545C360.727273 325.981091 386.792727 302.545455 418.909091 302.545455c11.287273 0 22.341818 2.955636 31.790545 8.494545z" fill="#F85212" p-id="27692"></path></svg>