<?xml version="1.0" standalone="no"?><!DOCTYPE svg PUBLIC "-//W3C//DTD SVG 1.1//EN" "http://www.w3.org/Graphics/SVG/1.1/DTD/svg11.dtd"><svg t="1631937165984" class="icon" viewBox="0 0 1024 1024" version="1.1" xmlns="http://www.w3.org/2000/svg" p-id="2111" xmlns:xlink="http://www.w3.org/1999/xlink" width="200" height="200"><defs><style type="text/css"></style></defs><path d="M512 309.8112m-51.3024 0a51.3024 51.3024 0 1 0 102.6048 0 51.3024 51.3024 0 1 0-102.6048 0Z" fill="#d81e06" p-id="2112"></path><path d="M512 719.3088m-51.3024 0a51.3024 51.3024 0 1 0 102.6048 0 51.3024 51.3024 0 1 0-102.6048 0Z" fill="#d81e06" p-id="2113"></path><path d="M768.0512 514.56c0-28.2624-22.9888-51.3024-51.3024-51.3024s-51.3024 22.9888-51.3024 51.3024c0 28.2624 22.9888 51.3024 51.3024 51.3024s51.3024-22.9888 51.3024-51.3024zM307.2512 463.2576c-28.2624 0-51.3024 22.9888-51.3024 51.3024 0 28.2624 22.9888 51.3024 51.3024 51.3024s51.3024-22.9888 51.3024-51.3024c0-28.2624-23.04-51.3024-51.3024-51.3024z" fill="#d81e06" p-id="2114"></path><path d="M885.6064 859.8528h-86.272c97.536-80.64 160.6144-201.4208 163.7888-337.1008 5.8368-249.6-195.0208-458.4448-444.672-461.8752C266.2912 57.344 60.7744 260.6592 60.7744 512c0 248.7808 201.3184 450.5088 449.9456 451.1744 0.4096 0 0.8192 0.1024 1.28 0.1024h373.6064c28.5696 0 51.7632-23.1424 51.7632-51.7632 0-28.5184-23.1936-51.6608-51.7632-51.6608zM512 207.3088c56.5248 0 102.5024 45.9776 102.5024 102.5024S568.5248 412.3136 512 412.3136s-102.5024-45.9776-102.5024-102.5024S455.4752 207.3088 512 207.3088z m-204.7488 409.7536c-56.5248 0-102.5024-45.9776-102.5024-102.5024s45.9776-102.5024 102.5024-102.5024 102.5024 45.9776 102.5024 102.5024-45.9776 102.5024-102.5024 102.5024zM512 821.8112c-56.5248 0-102.5024-45.9776-102.5024-102.5024s45.9776-102.5024 102.5024-102.5024 102.5024 45.9776 102.5024 102.5024-45.9776 102.5024-102.5024 102.5024z m204.7488-204.7488c-56.5248 0-102.5024-45.9776-102.5024-102.5024s45.9776-102.5024 102.5024-102.5024 102.5024 45.9776 102.5024 102.5024-45.9776 102.5024-102.5024 102.5024z" fill="#d81e06" p-id="2115"></path></svg>