<?xml version="1.0" encoding="utf-8"?>
<!DOCTYPE svg PUBLIC "-//W3C//DTD SVG 1.0//EN" "http://www.w3.org/TR/2001/REC-SVG-20010904/DTD/svg10.dtd">
<svg version="1.0" xmlns="http://www.w3.org/2000/svg" width="512px" height="512px" viewBox="0 0 512 512" preserveAspectRatio="xMidYMid meet">
 <g fill="#bdbdbd">
  <path d="M258 434.4 c-35.2 -2.6 -63.5 -11 -90.5 -26.9 -33.7 -19.8 -61.9 -50.7 -78.6 -86 -52.6 -111.5 10.2 -243.8 130 -273.9 23.3 -5.9 53 -7.5 75.6 -4.1 64.5 9.8 119 49.2 147.8 107 13.2 26.5 19.3 50.7 20.4 80 1.3 35.1 -5.1 64.1 -20.9 95.5 -22.5 44.7 -58.2 77 -106.2 96 -21 8.3 -56.3 13.9 -77.6 12.4z m42.6 -27.8 c35.9 -7.5 64.9 -23.7 90.6 -50.5 43.6 -45.5 58.5 -111.6 38.8 -172.1 -4.3 -13.1 -14.7 -33.7 -22.8 -44.9 -8.2 -11.6 -22.8 -27 -33.6 -35.7 -53 -42.6 -128.7 -49.3 -188.9 -16.6 -20.6 11.2 -42.6 30.4 -57 49.7 -13.2 17.9 -24.7 43.8 -29.9 67.5 -1.9 9.1 -2.2 13.4 -2.3 33 0 17.8 0.4 24.5 1.8 31.9 7.1 36.2 22.2 64.6 48.2 90.6 27.1 27.2 59.9 43.5 98.1 49 15.1 2.2 41.6 1.3 57 -1.9z"/>
  <path d="M238.5 308.3 c-8.7 -1.9 -14.1 -5.8 -17.8 -12.7 -2.2 -4 -2.2 -4.9 -2.5 -52.1 -0.2 -34.3 0 -49.2 0.9 -52.2 3.1 -11.1 16.7 -19.4 27.2 -16.5 3.4 0.9 17.9 9.1 68.7 38.5 8.5 4.9 16.8 10.1 18.4 11.6 9.5 8.6 8.7 26.1 -1.4 34.2 -3.3 2.6 -72 42.4 -80.5 46.6 -4.4 2.2 -9.9 3.3 -13 2.6z"/>
 </g>
</svg>